<?xml version="1.0" encoding="UTF-8"?><svg xmlns="http://www.w3.org/2000/svg" version="1.1" width="2421" height="2016">
<path d="M0,0 L4,2 L22,20 L30,27 L50,47 L58,54 L78,74 L86,81 L106,101 L114,108 L134,128 L140,133 L140,193 L132,187 L123,178 L115,171 L99,156 L86,144 L73,132 L60,120 L47,108 L32,94 L28,91 L28,193 L41,194 L57,198 L69,203 L82,212 L89,219 L98,233 L103,245 L105,256 L105,260 L59,260 L54,248 L47,241 L36,236 L28,234 L29,360 L46,356 L59,351 L68,345 L69,323 L49,323 L49,289 L107,289 L107,369 L97,378 L84,386 L69,393 L52,398 L31,401 L28,401 L28,444 L-23,444 L-23,400 L-33,398 L-49,392 L-61,386 L-74,376 L-81,369 L-90,356 L-98,339 L-102,326 L-105,307 L-105,285 L-102,267 L-97,252 L-89,237 L-81,227 L-71,217 L-56,207 L-40,200 L-25,196 L-25,91 L-39,104 L-50,113 L-62,124 L-73,133 L-86,145 L-97,154 L-109,165 L-120,174 L-133,186 L-141,193 L-143,193 L-143,134 L-130,121 L-122,114 L-114,106 L-106,99 L-98,91 L-90,84 L-83,77 L-75,70 L-67,62 L-59,55 L-52,48 L-44,41 L-36,33 L-28,26 L-20,18 L-12,11 L-5,4 Z M-27,239 L-38,245 L-48,254 L-55,263 L-60,274 L-63,288 L-63,303 L-60,318 L-55,330 L-49,339 L-44,345 L-31,354 L-23,357 L-23,335 L-24,239 Z " fill="#000000" transform="translate(402,113)"/>
<path d="M0,0 L4,4 L16,21 L29,39 L36,49 L36,51 L22,61 L15,60 L-13,48 L-16,48 L-4,64 L2,73 L1,76 L-10,84 L-12,84 L-24,67 L-37,49 L-47,35 L-42,30 L-31,22 L-15,28 L4,36 L2,32 L-11,14 L-13,9 Z " fill="#000000" transform="translate(244,66)"/>
<path d="M0,0 L5,1 L20,7 L27,45 L39,15 L55,21 L52,30 L38,66 L33,78 L27,77 L15,72 L13,68 L7,33 L3,41 L-6,63 L-15,60 L-22,57 L-16,41 Z " fill="#000000" transform="translate(280,557)"/>
<path d="M0,0 L3,0 L11,13 L11,15 L5,19 L2,25 L1,33 L5,41 L13,45 L23,45 L29,41 L32,35 L33,27 L32,25 L27,24 L25,33 L15,31 L10,29 L12,18 L16,4 L25,5 L49,12 L50,16 L50,31 L46,46 L40,54 L33,60 L26,63 L9,63 L-3,58 L-11,50 L-15,41 L-16,31 L-14,20 L-10,10 L-3,2 Z " fill="#000000" transform="translate(118,224)"/>
<path d="M0,0 L12,0 L24,3 L32,9 L31,13 L22,22 L18,21 L14,18 L11,17 L1,17 L-5,21 L-8,26 L-9,35 L-6,42 L-2,46 L5,48 L15,47 L16,41 L6,41 L5,37 L6,25 L21,25 L32,26 L32,47 L31,59 L26,62 L18,64 L-2,64 L-12,60 L-20,54 L-25,45 L-27,38 L-27,27 L-24,17 L-20,11 L-12,4 L-5,1 Z " fill="#000000" transform="translate(382,583)"/>
<path d="M0,0 L11,0 L18,4 L24,13 L24,24 L24,28 L47,37 L48,40 L34,50 L28,49 L11,41 L8,42 L20,57 L21,60 L10,69 L7,70 L-5,54 L-19,36 L-29,23 L-28,19 L-16,10 L-6,3 Z M2,16 L-7,22 L-5,26 L-3,29 L1,28 L7,23 L7,18 L5,16 Z " fill="#000000" transform="translate(559,527)"/>
<path d="M0,0 L31,1 L40,4 L47,12 L48,23 L45,32 L39,37 L37,38 L50,61 L50,63 L38,63 L30,62 L21,45 L19,40 L16,39 L16,58 L15,62 L3,62 L-1,61 L-1,35 Z M17,15 L16,24 L29,24 L31,20 L28,16 Z " fill="#000000" transform="translate(385,25)"/>
<path d="M0,0 L3,0 L7,12 L7,16 L-8,21 L-12,23 L-8,37 L-8,41 L9,36 L14,37 L18,50 L18,52 L-37,68 L-42,68 L-46,52 L-25,46 L-22,46 L-28,27 L-50,33 L-52,33 L-56,17 L-48,14 Z " fill="#000000" transform="translate(153,379)"/>
<path d="M0,0 L3,1 L11,12 L10,15 L-4,25 L20,28 L25,31 L35,45 L34,47 L-4,42 L-6,55 L-12,84 L-14,84 L-26,67 L-25,58 L-20,37 L-34,47 L-39,49 L-48,37 L-48,35 L-30,22 L-11,8 Z " fill="#000000" transform="translate(630,131)"/>
<path d="M0,0 L4,2 L12,11 L10,15 L-1,25 L25,27 L37,40 L39,44 L13,43 L0,43 L-5,83 L-7,85 L-20,70 L-21,65 L-18,45 L-18,39 L-30,50 L-35,52 L-45,41 L-43,37 L-32,28 L-21,18 L-10,9 Z M-17,37 Z " fill="#000000" transform="translate(198,483)"/>
<path d="M0,0 L18,4 L65,16 L63,21 L55,31 L47,30 L41,29 L31,42 L32,46 L36,53 L34,58 L25,69 L22,65 L9,41 L-4,18 L-7,12 L-6,8 Z M16,21 L21,29 L26,24 L22,22 Z " fill="#000000" transform="translate(596,484)"/>
<path d="M0,0 L9,2 L14,5 L18,62 L18,71 L8,68 L1,65 L0,64 L-1,52 L-15,47 L-20,48 L-26,55 L-32,54 L-44,49 L-38,41 L-27,30 L-20,22 L-5,6 Z M-2,26 L-7,31 L-7,34 L-1,35 L-1,26 Z " fill="#000000" transform="translate(494,41)"/>
<path d="M0,0 L26,5 L65,13 L63,18 L55,29 L42,27 L32,41 L34,46 L38,52 L36,57 L29,67 L25,65 L8,37 L-5,16 L-7,13 L-6,8 Z M17,20 L19,25 L21,28 L23,28 L26,24 L26,22 Z " fill="#000000" transform="translate(152,151)"/>
<path d="M0,0 L16,1 L64,6 L67,7 L70,16 L69,21 L57,32 L46,41 L34,52 L23,61 L20,63 L17,55 L15,49 L15,44 L22,38 L24,38 L19,21 L19,18 L6,18 L2,8 Z M35,19 L36,26 L41,24 L44,20 Z " fill="#000000" transform="translate(622,226)"/>
<path d="M0,0 L4,2 L16,16 L25,27 L36,40 L44,50 L44,52 L26,57 L19,48 L12,49 L1,52 L0,54 L-1,65 L-17,70 L-19,70 L-18,57 L-12,9 L-10,3 Z M2,26 L1,29 L1,36 L8,34 L3,26 Z " fill="#000000" transform="translate(318,36)"/>
<path d="M0,0 L12,0 L22,5 L30,13 L33,20 L33,24 L21,27 L16,27 L14,19 L9,17 L5,18 L7,24 L14,34 L15,37 L15,47 L9,56 L1,60 L-10,60 L-22,54 L-29,46 L-32,39 L-32,33 L-15,30 L-13,38 L-8,43 L-3,43 L-4,37 L-11,27 L-13,22 L-13,12 L-7,4 Z " fill="#000000" transform="translate(563,81)"/>
<path d="M0,0 L3,0 L8,11 L7,15 L-5,20 L-4,25 L10,60 L9,64 L-5,69 L-10,58 L-22,28 L-25,28 L-35,32 L-38,32 L-43,20 L-42,17 L-12,5 Z " fill="#000000" transform="translate(511,558)"/>
<path d="M0,0 L13,3 L15,4 L13,15 L6,42 L4,43 L-53,28 L-54,25 L-50,11 L-33,15 L-10,21 L-6,21 Z " fill="#000000" transform="translate(689,381)"/>
<path d="M0,0 L5,2 L14,9 L12,13 L2,27 L-12,46 L-21,58 L-24,58 L-35,50 L-34,46 L-20,27 L-6,8 Z " fill="#000000" transform="translate(248,534)"/>
<path d="M0,0 L3,4 L8,13 L8,16 L-15,28 L-37,40 L-44,44 L-46,44 L-53,31 L-52,28 L-24,13 Z " fill="#000000" transform="translate(180,449)"/>
<path d="M0,0 L20,7 L56,21 L57,25 L52,38 L42,35 L-4,17 L-5,12 Z " fill="#000000" transform="translate(623,437)"/>
<path d="M0,0 L11,0 L17,4 L21,11 L21,19 L17,27 L10,31 L0,31 L-6,27 L-9,24 L-11,14 L-9,7 L-3,1 Z " fill="#000000" transform="translate(669,313)"/>
<path d="M0,0 L11,0 L18,5 L21,12 L21,19 L17,27 L10,31 L0,31 L-6,27 L-10,22 L-11,13 L-8,6 L-3,1 Z " fill="#000000" transform="translate(122,313)"/>
</svg>